<svg xmlns="http://www.w3.org/2000/svg" xmlns:xlink="http://www.w3.org/1999/xlink" width="500" zoomAndPan="magnify" viewBox="0 0 375 374.999991" height="500" preserveAspectRatio="xMidYMid meet" version="1.0"><defs><clipPath id="01a62aec82"><path d="M 112.5 113 L 262.5 113 L 262.5 197 L 112.5 197 Z M 112.5 113 " clip-rule="nonzero"/></clipPath></defs><g clip-path="url(#01a62aec82)"><path fill="#e1e8ed" d="M 229.167969 130.207031 C 225.730469 130.207031 222.417969 130.730469 219.296875 131.695312 C 215.601562 121.132812 205.574219 113.542969 193.75 113.542969 C 181.066406 113.542969 170.449219 122.273438 167.503906 134.046875 C 164.363281 131.671875 160.496094 130.207031 156.25 130.207031 C 145.894531 130.207031 137.5 138.605469 137.5 148.957031 C 137.5 151.476562 138.011719 153.867188 138.914062 156.058594 C 137.125 155.5625 135.277344 155.207031 133.332031 155.207031 C 121.824219 155.207031 112.5 164.535156 112.5 176.042969 C 112.5 187.550781 121.824219 196.875 133.332031 196.875 L 229.167969 196.875 C 247.574219 196.875 262.5 181.953125 262.5 163.542969 C 262.5 145.132812 247.574219 130.207031 229.167969 130.207031 Z M 229.167969 130.207031 " fill-opacity="1" fill-rule="nonzero"/></g><path fill="#5dadec" d="M 162.496094 217.546875 L 162.023438 203.292969 L 150.066406 210.410156 C 147.410156 211.847656 145.640625 214.675781 145.75 217.902344 C 145.902344 222.5 149.773438 226.136719 154.398438 226.042969 C 159.019531 225.945312 162.648438 222.136719 162.496094 217.546875 Z M 154.25 248.628906 L 153.777344 234.375 L 141.820312 241.492188 C 139.164062 242.929688 137.394531 245.757812 137.503906 248.988281 C 137.660156 253.582031 141.527344 257.222656 146.152344 257.125 C 150.777344 257.027344 154.402344 253.222656 154.25 248.628906 Z M 133.417969 230.046875 L 132.945312 215.792969 L 120.988281 222.910156 C 118.328125 224.347656 116.5625 227.175781 116.671875 230.402344 C 116.824219 234.996094 120.695312 238.632812 125.320312 238.542969 C 129.945312 238.445312 133.570312 234.636719 133.417969 230.046875 Z M 208.417969 217.546875 L 207.945312 203.292969 L 195.992188 210.410156 C 193.328125 211.847656 191.566406 214.675781 191.675781 217.902344 C 191.828125 222.5 195.699219 226.136719 200.324219 226.042969 C 204.945312 225.945312 208.570312 222.136719 208.417969 217.546875 Z M 183.328125 234.210938 L 182.859375 219.957031 L 170.902344 227.074219 C 168.242188 228.511719 166.480469 231.339844 166.585938 234.570312 C 166.742188 239.167969 170.613281 242.804688 175.238281 242.707031 C 179.859375 242.613281 183.484375 238.804688 183.328125 234.210938 Z M 204.25 252.796875 L 203.773438 238.542969 L 191.820312 245.660156 C 189.160156 247.097656 187.394531 249.925781 187.503906 253.152344 C 187.660156 257.75 191.527344 261.386719 196.152344 261.292969 C 200.777344 261.195312 204.402344 257.386719 204.25 252.796875 Z M 233.328125 230.046875 L 232.859375 215.792969 L 220.902344 222.910156 C 218.242188 224.347656 216.480469 227.175781 216.585938 230.402344 C 216.742188 235 220.613281 238.636719 225.238281 238.542969 C 229.859375 238.445312 233.484375 234.636719 233.328125 230.046875 Z M 233.328125 230.046875 " fill-opacity="1" fill-rule="nonzero"/></svg>